<?xml version="1.0" encoding="UTF-8" standalone="no"?>
<svg
   height="432.60001"
   width="673.12018"
   version="1.1"
   id="svg4"
   sodipodi:docname="soccer_field.svg"
   inkscape:version="1.3.2 (091e20e, 2023-11-25)"
   xmlns:inkscape="http://www.inkscape.org/namespaces/inkscape"
   xmlns:sodipodi="http://sodipodi.sourceforge.net/DTD/sodipodi-0.dtd"
   xmlns:xlink="http://www.w3.org/1999/xlink"
   xmlns="http://www.w3.org/2000/svg"
   xmlns:svg="http://www.w3.org/2000/svg">
  <defs
     id="defs4" />
  <sodipodi:namedview
     id="namedview4"
     pagecolor="#505050"
     bordercolor="#ffffff"
     borderopacity="1"
     inkscape:showpageshadow="0"
     inkscape:pageopacity="0"
     inkscape:pagecheckerboard="1"
     inkscape:deskcolor="#505050"
     inkscape:zoom="0.63532881"
     inkscape:cx="85.782353"
     inkscape:cy="234.52423"
     inkscape:window-width="1800"
     inkscape:window-height="1097"
     inkscape:window-x="0"
     inkscape:window-y="44"
     inkscape:window-maximized="0"
     inkscape:current-layer="svg4" />
  <g
     stroke="#eeffee"
     stroke-width="3"
     fill="none"
     id="g4"
     transform="rotate(90,344.14005,334.42005)">
    <path
       d="m 11.22,22.62 v 638.8 h 429.6 V 22.62 Z"
       id="path1" />
    <path
       d="m 11.26,342 h 429.4"
       id="path2" />
    <circle
       cy="342"
       cx="226"
       r="54.799999"
       id="circle2" />
    <circle
       cy="342"
       cx="226"
       r="2"
       id="circle3" />
    <g
       id="a">
      <path
         d="m 9.9,30.07 c 4.85,0 8.82,-4 8.82,-8.9 m 162.5,100.8 a 54.91,54.91 0 0 0 89.6,0 m 76.3,-99.63 v 99.63 h -242.2 l 0.2,-99.63 m 98.6,0.2 V 6.94 l 44.6,0.003 v 15.6 m -77.9,-0.2 v 34.4 h 111.2 v -34.4 m 160.5,7.7 c -4.9,0 -8.8,-4 -8.8,-8.9"
         id="path3" />
      <circle
         cy="90"
         cx="226"
         r="2"
         id="circle4" />
    </g>
    <use
       xlink:href="#a"
       transform="scale(1,-1)"
       y="-684"
       id="use4" />
  </g>
</svg>
